<svg width="145" height="31" viewBox="0 0 145 31" fill="none" xmlns="http://www.w3.org/2000/svg">
<path d="M90.0039 13.2456C89.4034 10.3503 87.7777 8.2885 85.0241 7.22105C82.461 6.22671 79.8393 6.21208 77.2615 7.13331C74.5812 8.08378 72.8675 9.99935 72.1499 12.7484C71.8423 13.889 71.813 15.0588 71.8862 16.2286C72.1059 19.8258 74.3761 22.6918 77.8327 23.7154C79.5024 24.2126 81.2014 24.271 82.9297 24.081C84.365 23.9201 85.7125 23.496 86.9721 22.7795C88.0559 22.1654 88.964 21.3611 89.6231 20.3083C89.9746 19.7527 89.96 19.7234 89.3888 19.4748C88.4807 19.0654 87.558 18.6706 86.6352 18.2758C86.4888 18.2027 86.3277 18.1442 86.1226 18.071C85.566 19.0361 84.7751 19.6064 83.7938 19.9281C82.2706 20.4253 80.7181 20.4692 79.1802 20.0597C77.8034 19.6942 76.8807 18.846 76.4413 17.4861C76.412 17.3838 76.3973 17.2668 76.368 17.1206H89.4181C89.5499 17.1206 89.6964 17.0913 89.8282 17.0767C90.165 17.0621 90.209 17.0036 90.2236 16.6673C90.209 15.5121 90.2383 14.3715 90.0039 13.2456ZM76.3827 13.2894C76.3827 13.2894 76.3827 13.3041 76.3827 13.2894C76.4706 13.0116 76.5731 12.7484 76.6903 12.5144C76.7049 12.4852 76.7196 12.456 76.7489 12.4121C76.7635 12.3828 76.7782 12.3536 76.7928 12.3243C76.8074 12.2951 76.8221 12.2805 76.8367 12.2512C76.8514 12.222 76.866 12.1927 76.8807 12.1781C76.8953 12.1489 76.91 12.1343 76.9246 12.105C76.9832 12.0319 77.0271 11.9588 77.0857 11.8857C77.3787 11.5347 77.7302 11.2423 78.1549 10.9937C78.7554 10.6574 79.4145 10.4819 80.0883 10.4234C80.9963 10.3357 81.9191 10.3503 82.8125 10.5989C84.16 10.9644 85.0827 11.7833 85.5368 13.0993C85.5514 13.1578 85.566 13.2017 85.5953 13.3041H76.3827V13.2894Z" fill="#2A95FF"/>
<path d="M69.3363 13.4967C68.7505 10.2651 66.905 8.07169 63.7707 7.03348C61.4566 6.27311 59.0838 6.28773 56.7697 7.04811C54.0308 7.95471 52.2439 9.82641 51.453 12.6047C51.0869 13.9208 51.0429 15.266 51.1894 16.6406C51.5556 20.033 53.7672 22.7236 57.0626 23.7033C58.747 24.2005 60.4606 24.2736 62.2035 24.0689C63.6828 23.8934 65.0889 23.4547 66.3778 22.6943C67.4177 22.0802 68.2818 21.2906 68.9262 20.267C69.2485 19.7552 69.2338 19.7259 68.7066 19.492C67.7252 19.0679 66.7586 18.6292 65.7773 18.2052C65.6601 18.1467 65.5283 18.1174 65.3965 18.059C64.6495 19.3458 63.4631 19.9014 62.101 20.1646C61.3247 20.3108 60.5485 20.3255 59.7722 20.267C59.0692 20.2231 58.3954 20.1061 57.751 19.8137C56.5939 19.2726 55.9348 18.2637 55.598 17.0939H67.7985C68.2232 17.0939 68.648 17.0646 69.0727 17.05C69.4535 17.05 69.4975 16.9915 69.4975 16.6259C69.4975 15.6024 69.5268 14.5349 69.3363 13.4967ZM55.6712 13.3066C55.6712 13.3066 55.6712 13.3212 55.6712 13.3066C55.6859 13.2774 55.7005 13.2627 55.7005 13.2335C55.7151 13.2042 55.7152 13.175 55.7298 13.1458C55.7444 13.1165 55.7444 13.0873 55.7591 13.058C55.7737 13.0288 55.7737 12.9995 55.7884 12.9703C55.8177 12.8825 55.8616 12.7948 55.8909 12.7071C55.9056 12.6778 55.9202 12.6486 55.9348 12.6193C55.9641 12.5608 55.9934 12.4877 56.0374 12.4292C56.052 12.4146 56.052 12.4 56.0667 12.3707C56.0813 12.3415 56.096 12.3123 56.1106 12.2976C56.1253 12.2684 56.1399 12.2538 56.1545 12.2245C56.301 12.0052 56.4621 11.8005 56.6525 11.6104C56.6672 11.5957 56.6965 11.5665 56.7111 11.5519C56.8429 11.4349 56.9747 11.3179 57.1359 11.2156C57.1798 11.1863 57.2237 11.1571 57.2677 11.1278C57.297 11.1132 57.3263 11.084 57.3702 11.0693C57.8975 10.7476 58.4833 10.5722 59.0838 10.4844C59.1717 10.4698 59.2596 10.4552 59.3475 10.4552C59.4207 10.4406 59.4939 10.4406 59.5672 10.4406C59.5818 10.4406 59.5965 10.4406 59.6111 10.4406C59.655 10.4406 59.6843 10.4406 59.7283 10.4259C59.8162 10.4259 59.8894 10.4113 59.9773 10.4113C60.7242 10.3821 61.4566 10.4406 62.1889 10.6453C62.8919 10.8354 63.4631 11.1571 63.9172 11.5957C63.9465 11.625 63.9611 11.6542 63.9904 11.6835C64.049 11.742 63.9904 11.8005 64.1369 11.859C64.2833 11.9467 64.298 12.0491 64.3566 12.1514C64.4298 12.2538 64.4884 12.3708 64.5616 12.4731C64.6788 12.6924 64.7813 12.941 64.8692 13.2042C64.8692 13.2189 64.8692 13.2189 64.8838 13.2335C64.8985 13.2774 64.9131 13.292 64.9278 13.3358V13.3212H55.6712V13.3066Z" fill="#2A95FF"/>
<path d="M35.298 7.07735C35.298 6.9165 35.2833 6.75565 35.2687 6.5948C34.6535 6.46319 31.4899 6.49244 31.0505 6.63867V7.74999C30.904 7.64763 30.7136 7.55989 30.5818 7.5014C30.0106 7.26744 29.4394 6.97499 28.8389 6.81414C26.7005 6.25848 24.5621 6.36084 22.4823 7.06272C19.7434 7.99857 18.0005 9.89952 17.2682 12.6924C16.8581 14.2424 16.8288 15.8071 17.151 17.3717C17.7515 20.3108 19.4359 22.3726 22.2626 23.4693C23.4636 23.9373 24.7232 24.1127 25.9975 24.1273C27.6818 24.142 29.3076 23.908 30.7869 23.0014C30.8601 22.9575 30.948 22.9429 31.0944 22.899V24.0835C31.2409 24.0981 31.446 24.1273 31.5924 24.1273C32.6616 24.1273 33.7308 24.1273 34.8 24.1273C35.3126 24.1273 35.3419 24.0981 35.3419 23.5717C35.298 18.1174 35.298 12.6047 35.298 7.07735ZM30.8308 17.0792C30.3914 18.9071 29.0586 20.0476 27.1252 20.2523C26.7884 20.2962 26.4515 20.2962 25.9535 20.3401C25.5434 20.2816 24.9576 20.2523 24.401 20.1207C22.7752 19.7406 21.7793 18.6877 21.3985 17.0792C21.1202 15.9387 21.1202 14.7981 21.3838 13.6575C21.7646 12.0052 22.7752 10.9523 24.4449 10.5575C25.5288 10.3089 26.6273 10.2943 27.7258 10.5429C29.5859 10.9523 30.5965 12.1806 30.9187 13.9939C31.0944 15.0321 31.0798 16.0703 30.8308 17.0792Z" fill="url(#paint0_linear_43_4)"/>
<path d="M141.866 13.545C141.309 10.2695 139.449 8.07608 136.315 7.02325C134.059 6.2775 131.76 6.2775 129.504 6.97938C126.648 7.85674 124.774 9.75769 123.983 12.6383C123.602 14.0129 123.558 15.4166 123.748 16.8204C124.144 19.7157 125.608 21.8652 128.215 23.1959C129.665 23.9417 131.247 24.1464 133.283 24.1756C133.708 24.1171 134.587 24.0733 135.422 23.8832C138.673 23.1228 140.826 21.178 141.705 17.9317C142.1 16.4987 142.115 15.0218 141.866 13.545ZM137.604 16.8643C137.179 18.853 135.89 20.0228 133.854 20.2421C133.503 20.286 133.151 20.286 132.653 20.3299C132.273 20.286 131.76 20.2567 131.262 20.1544C129.578 19.8181 128.523 18.8091 128.113 17.1421C127.82 15.9723 127.82 14.7879 128.098 13.6181C128.494 11.9803 129.49 10.9421 131.145 10.5619C132.243 10.3133 133.342 10.2987 134.426 10.5473C136.168 10.9275 137.208 12.0242 137.589 13.7497C137.824 14.7733 137.824 15.8261 137.604 16.8643Z" fill="#2A95FF"/>
<path d="M44.6131 7.8231C46.195 6.84339 47.8354 6.49244 49.5636 6.53631C49.6955 7.00423 49.6955 9.89952 49.5783 10.3382C49.1828 10.3821 48.7874 10.4113 48.3919 10.4698C46.2975 10.7623 44.9939 12.0637 44.7157 14.1401C44.6571 14.5788 44.6278 15.0174 44.6278 15.4561C44.6131 18.1321 44.6278 20.808 44.6278 23.484C44.6278 23.6887 44.6278 23.8788 44.6278 24.1127C44.4227 24.1273 44.2763 24.1566 44.1152 24.1566C43.0313 24.1566 41.9475 24.1566 40.8636 24.1566C40.3803 24.1566 40.351 24.1273 40.351 23.6302C40.351 18.1028 40.351 12.5901 40.351 7.06273C40.351 6.53631 40.3657 6.50706 40.8929 6.50706C41.9621 6.50706 43.0313 6.50706 44.1005 6.50706C44.6278 6.50706 44.6278 6.52169 44.6278 7.06273C44.6131 7.29669 44.6131 7.5014 44.6131 7.8231Z" fill="#2A95FF"/>
<path d="M98.1091 7.74679C99.6762 6.7817 101.302 6.43076 103.016 6.46C103.177 6.82557 103.206 9.72085 103.06 10.2765C102.664 10.3204 102.269 10.3496 101.873 10.4081C99.8227 10.6859 98.5338 11.9581 98.2262 13.9907C98.1677 14.4293 98.1237 14.868 98.1237 15.3067C98.1091 17.9973 98.1237 20.6878 98.1237 23.3784C98.1237 23.4954 98.1237 23.6124 98.1237 23.7293C98.1384 23.9779 98.0212 24.1095 97.7576 24.1095C97.6697 24.1095 97.5818 24.1095 97.5086 24.1095C96.498 24.1095 95.4727 24.1095 94.4621 24.1095C94.2863 24.1095 94.0959 24.0803 93.8616 24.0657C93.8616 23.8463 93.8616 23.6562 93.8616 23.4808C93.8616 18.0265 93.8616 12.5723 93.8616 7.11802C93.8616 7.03029 93.8616 6.94255 93.8616 6.86944C93.8762 6.50387 93.9055 6.47463 94.2863 6.46C95.1798 6.46 96.0878 6.46 96.9813 6.46C97.2596 6.46 97.5232 6.46 97.8015 6.46C98.0358 6.46 98.1384 6.56236 98.1384 6.79632C98.1091 7.08878 98.1091 7.36661 98.1091 7.74679Z" fill="#2A95FF"/>
<path d="M4.18889 22.0656C4.17424 21.9925 4.17424 21.9778 4.1596 21.9632C2.97323 20.8519 2.66566 19.4042 2.76818 17.8689C3.01717 14.608 4.64293 12.2538 7.61616 10.8354C7.79192 10.7476 7.99697 10.6892 8.26061 10.5868C7.74798 10.967 7.26465 11.2594 6.88384 11.6542C6.48839 12.0637 6.12222 12.5316 5.87323 13.0288C5.62424 13.5113 5.49243 14.0816 5.36061 14.608C5.22879 15.1783 5.24344 15.7632 5.40455 16.3189C5.56566 16.8745 5.74142 17.4302 6.0197 17.9274C7.04495 19.7698 9.69596 21.3783 12.8303 19.9307C13.6066 20.7057 14.3682 21.466 15.1737 22.2703C14.2071 23.0453 13.0793 23.5278 11.849 23.8203C10.604 24.1127 9.35909 24.0835 8.08485 23.8788C7.98233 24.0542 7.8798 24.2005 7.79192 24.3613C6.69344 26.2623 5.58031 28.1778 4.48182 30.0788C4.45253 30.1226 4.43788 30.1665 4.40859 30.2104C4.14495 30.6637 4.14495 30.6637 3.70556 30.4151C3.23687 30.1519 2.76818 29.8741 2.2995 29.5962C1.83081 29.3184 1.36212 29.0552 0.893436 28.7774C0.761618 28.7042 0.644447 28.6165 0.468689 28.4849C1.72829 26.3208 2.95859 24.1712 4.18889 22.0656Z" fill="#2A95FF"/>
<path d="M119.662 24.4384C119.487 24.453 119.34 24.4822 119.194 24.4822C118.11 24.4822 117.026 24.4822 115.942 24.4822C115.459 24.4822 115.43 24.4384 115.43 23.9558C115.43 18.4138 115.43 12.8718 115.43 7.32987C115.43 6.8327 115.444 6.80345 115.942 6.80345C117.026 6.80345 118.11 6.80345 119.194 6.80345C119.677 6.80345 119.692 6.81807 119.692 7.32987C119.692 12.8718 119.692 18.4138 119.692 23.9558C119.692 24.1167 119.677 24.2629 119.662 24.4384Z" fill="#2A95FF"/>
<path d="M15.3641 8.27641C14.5293 9.1099 13.7237 9.91415 12.9035 10.733C10.0621 9.70943 7.35253 10.0165 4.9798 11.9759C2.60708 13.9354 1.81617 16.5236 2.28485 19.5943C0.410107 16.6552 0.497985 11.8005 3.9692 8.6566C7.44041 5.51273 12.4056 5.80519 15.3641 8.27641Z" fill="#2A95FF"/>
<path d="M117.524 4.94637C116.879 4.87326 116.323 4.66854 115.869 4.21524C114.902 3.27939 115.034 1.83175 116.176 1.07137C116.88 0.603448 117.656 0.530335 118.461 0.808165C119.325 1.11524 119.882 1.861 119.897 2.70911C119.911 3.55722 119.399 4.34684 118.564 4.68317C118.227 4.81477 117.861 4.85864 117.524 4.94637Z" fill="#2A95FF"/>
<path d="M107.925 20.0208C108.599 20.0208 109.199 20.2987 109.683 20.8251C110.342 21.5562 110.356 22.6383 109.726 23.384C108.76 24.5392 106.944 24.5392 105.962 23.384C105.347 22.6383 105.362 21.5416 106.021 20.8251C106.534 20.284 107.149 20.0208 107.925 20.0208Z" fill="#2A95FF"/>
<path d="M78.0217 13.3066C78.1096 13.0141 78.2121 12.7656 78.3293 12.517C78.2121 12.7509 78.1096 13.0141 78.0217 13.3066Z" fill="url(#paint1_linear_43_4)"/>
<path d="M87.2636 13.3066C87.2343 13.3066 87.2343 13.1604 87.205 13.1019C86.7364 11.7858 85.8283 10.967 84.4808 10.6014C83.5874 10.3528 82.6647 10.3382 81.7566 10.4259C81.0828 10.4991 80.4237 10.6599 79.8232 10.9962C79.3985 11.2302 79.0323 11.5373 78.7541 11.8882C79.047 11.5373 79.3985 11.2302 79.8232 10.9962C80.4237 10.6599 81.0828 10.4991 81.7566 10.4259C82.6647 10.3382 83.5874 10.3528 84.4808 10.6014C85.8283 10.967 86.751 11.7712 87.205 13.0873C87.2343 13.1458 87.2343 13.3066 87.2636 13.3066Z" fill="url(#paint2_linear_43_4)"/>
<path d="M62.1889 10.616C62.8919 10.8061 63.4631 11.1278 63.9172 11.5811C63.4631 11.1278 62.8919 10.8207 62.1889 10.616C61.2662 10.3674 60.3141 10.3382 59.3621 10.4406C58.6737 10.5137 58 10.6745 57.3848 11.0401C56.5207 11.5519 55.9788 12.283 55.6859 13.3066C55.9934 12.283 56.5207 11.5519 57.3995 11.0401C58.0146 10.6745 58.6737 10.5137 59.3768 10.4259C60.3141 10.3236 61.2515 10.3528 62.1889 10.616Z" fill="url(#paint3_linear_43_4)"/>
<path d="M64.9424 13.3066C64.8399 13.0142 64.7227 12.6925 64.5909 12.4292C64.7227 12.6925 64.8399 13.0142 64.9424 13.3066Z" fill="url(#paint4_linear_43_4)"/>
<defs>
<linearGradient id="paint0_linear_43_4" x1="37.5065" y1="20.1753" x2="18.8103" y2="9.3634" gradientUnits="userSpaceOnUse">
<stop stop-color="#2A95FF"/>
<stop offset="0.7527" stop-color="#2098FF"/>
<stop offset="1" stop-color="#2A95FF"/>
</linearGradient>
<linearGradient id="paint1_linear_43_4" x1="78.2398" y1="12.9447" x2="78.1275" y2="12.8798" gradientUnits="userSpaceOnUse">
<stop stop-color="#5454FF"/>
<stop offset="0.7527" stop-color="#2098FF"/>
<stop offset="1" stop-color="#2A95FF"/>
</linearGradient>
<linearGradient id="paint2_linear_43_4" x1="86.7826" y1="14.1369" x2="79.7908" y2="10.0936" gradientUnits="userSpaceOnUse">
<stop stop-color="#5454FF"/>
<stop offset="0.7527" stop-color="#2098FF"/>
<stop offset="1" stop-color="#2A95FF"/>
</linearGradient>
<linearGradient id="paint3_linear_43_4" x1="62.5434" y1="13.9593" x2="57" y2="10.7536" gradientUnits="userSpaceOnUse">
<stop stop-color="#5454FF"/>
<stop offset="0.7527" stop-color="#2098FF"/>
<stop offset="1" stop-color="#2A95FF"/>
</linearGradient>
<linearGradient id="paint4_linear_43_4" x1="65.0811" y1="13.0582" x2="64.4366" y2="12.6854" gradientUnits="userSpaceOnUse">
<stop stop-color="#5454FF"/>
<stop offset="0.7527" stop-color="#2098FF"/>
<stop offset="1" stop-color="#2A95FF"/>
</linearGradient>
</defs>
</svg>
